<svg version="1.1" id="Layer_1" xmlns="http://www.w3.org/2000/svg" xmlns:xlink="http://www.w3.org/1999/xlink" x="0px" y="0px"
	 width="100%" viewBox="0 0 282 373" enable-background="new 0 0 282 373" xml:space="preserve">
<path fill="#FFFFFF" opacity="1.000000" stroke="none" 
	d="
M283.000000,127.000000 
	C283.000000,209.294296 283.000000,291.588593 283.000000,373.941437 
	C189.083633,373.941437 95.167236,373.941437 1.125414,373.941437 
	C1.125414,249.666763 1.125414,125.333397 1.125414,1.000000 
	C8.068862,1.000000 15.065648,1.000000 22.463234,1.362398 
	C16.476395,3.465044 13.347142,8.354547 10.697279,14.239853 
	C9.933782,15.708192 9.147456,16.915546 9.066265,18.168589 
	C8.616103,25.116096 8.139033,32.072014 8.044308,39.030132 
	C7.883294,50.857517 8.000000,62.688675 8.000000,74.518250 
	C8.000000,86.347824 8.000000,98.177391 8.000000,110.006966 
	C8.000000,121.836540 8.000000,133.666107 8.000000,145.495682 
	C8.000000,157.325256 8.000000,169.154831 8.000000,180.984406 
	C8.000000,192.813980 8.000000,204.643539 8.000000,216.473114 
	C8.000000,228.302689 8.000000,240.132263 8.000000,251.961838 
	C8.000000,263.791412 8.000000,275.620972 8.000000,287.450562 
	C8.000000,299.280121 9.137846,311.252106 7.680297,322.899261 
	C6.219915,334.569092 12.949103,345.261475 10.076189,356.762787 
	C9.941278,357.302856 10.383345,357.987000 10.583114,358.698090 
	C12.800376,359.146820 14.902093,359.572174 17.388361,359.992065 
	C20.533026,359.163910 23.283628,357.677399 26.054962,357.637695 
	C36.096508,357.493835 46.146439,357.958679 56.189133,357.842255 
	C57.483582,357.827240 58.754120,355.749298 60.448078,354.453156 
	C63.525688,354.070221 66.190956,353.861084 68.886551,354.082886 
	C69.810867,360.385498 70.925888,361.033417 75.581268,359.400238 
	C74.323425,353.643463 73.191895,348.077240 71.800362,342.576752 
	C71.622360,341.873169 70.090141,341.512177 69.035034,340.545532 
	C68.864845,302.048676 68.842239,263.998779 68.839912,225.948853 
	C68.839851,224.968430 69.062050,223.988007 69.546623,223.001984 
	C70.793297,221.376022 71.762459,219.796188 72.528755,218.123444 
	C73.239662,216.571594 73.681999,214.898819 74.341141,213.320450 
	C74.810112,212.197464 75.442619,211.142776 76.450897,209.910950 
	C111.580421,209.727844 146.261200,209.691376 181.020538,209.924622 
	C181.771042,209.970871 182.443008,209.747375 183.518524,209.415604 
	C185.593597,209.285889 187.265091,209.264465 188.900818,209.472595 
	C188.865051,209.702179 188.957428,210.157608 189.066528,210.524628 
	C197.680054,213.328644 206.099472,213.098190 215.085144,211.262817 
	C213.604202,208.767731 212.811310,207.431885 212.345917,205.925598 
	C215.139664,204.586258 217.605927,203.417404 220.380600,202.059952 
	C221.369614,201.648941 222.050217,201.426529 222.869659,201.564987 
	C228.868591,203.723801 231.553162,199.061218 235.352081,196.177338 
	C239.939636,200.472275 243.535629,195.075027 247.613815,195.166122 
	C248.493530,195.185776 249.482544,190.314117 250.291275,188.058029 
	C252.535110,186.098953 254.774216,184.178497 256.972809,182.212738 
	C258.534546,180.816391 260.088043,179.404831 261.560577,177.916351 
	C263.148560,176.311203 265.529358,174.820511 265.985077,172.904343 
	C266.939117,168.892639 266.856293,164.634384 267.055695,162.217636 
	C270.502380,160.213501 274.630615,158.936584 274.646667,157.609863 
	C274.717468,151.766068 277.412842,145.696228 273.982544,139.707184 
	C273.687195,138.955887 273.403778,138.492477 273.075958,137.689575 
	C273.155579,136.915894 273.279541,136.481705 273.662201,136.033752 
	C274.288971,135.684067 274.657104,135.348129 275.365112,134.950333 
	C275.797089,133.591034 275.889191,132.293594 275.991394,130.623444 
	C276.037903,129.506119 276.074341,128.761536 276.491486,127.959633 
	C278.914764,127.601555 280.957397,127.300774 283.000000,127.000000 
z"/>
<path fill="#FFFFFF" opacity="1.000000" stroke="none" 
	d="
M11.000000,13.999962 
	C13.347142,8.354547 16.476395,3.465044 22.932016,1.362398 
	C109.560356,1.000000 196.120712,1.000000 283.000000,1.000000 
	C283.000000,33.020187 283.000000,65.041435 282.631866,97.493095 
	C280.831085,96.236214 279.413330,94.535919 277.958466,92.868011 
	C277.374786,92.198875 276.709503,91.600929 276.058929,90.600540 
	C276.017731,89.488304 275.998962,88.746101 276.321442,87.949783 
	C279.188782,85.211365 277.263031,84.050621 274.724854,82.989929 
	C274.105652,82.965004 273.751831,82.958817 273.255371,82.638618 
	C273.121338,81.868896 273.129944,81.413185 273.390167,80.753311 
	C273.749390,79.699020 273.856934,78.848877 274.262085,77.724487 
	C274.499146,74.547432 274.416504,71.644875 274.384521,68.741768 
	C274.354523,66.017876 274.378113,63.293392 274.378113,60.013512 
	C272.489868,60.013512 269.735504,60.013512 266.741943,59.839256 
	C266.324982,59.109577 266.147156,58.554157 266.232208,57.771130 
	C266.313660,55.642357 266.540527,53.574677 265.849884,51.881191 
	C264.938538,49.646606 263.408295,47.193432 260.717072,50.885754 
	C260.476349,50.915054 259.998566,50.998371 259.701050,50.838272 
	C258.193573,48.810123 256.983673,46.942074 256.163086,45.047478 
	C257.197693,44.359398 258.365234,43.718620 258.392487,43.032509 
	C258.482483,40.768776 258.017548,38.487854 258.030182,36.215004 
	C258.048431,32.926037 256.980743,31.953062 253.533737,32.787670 
	C251.294678,33.329807 248.717499,32.328304 246.293274,32.339413 
	C245.529861,32.342903 244.771210,33.387547 243.699768,33.921814 
	C242.619110,33.188118 241.849045,32.488277 241.105881,31.517403 
	C241.051880,30.894169 240.970978,30.541971 240.921112,29.772320 
	C241.478470,26.025389 240.093842,22.856941 236.870010,23.389883 
	C232.059723,24.185087 232.058380,22.031891 231.917435,18.583759 
	C231.746841,14.410786 229.007111,12.941941 225.533463,15.069259 
	C223.367172,16.395929 221.852875,16.449808 219.274689,15.518689 
	C216.166885,14.396297 212.388458,15.130796 208.632141,15.062187 
	C207.922501,15.287766 207.481064,15.512650 206.715149,15.743340 
	C205.984192,15.610534 205.577713,15.471920 205.131470,15.101578 
	C204.727341,14.582340 204.362946,14.294829 203.966827,13.661244 
	C203.622986,12.209717 203.310883,11.104263 203.283234,9.964067 
	C203.890457,9.624514 204.213211,9.319701 204.535950,9.014892 
	C204.326279,8.833184 204.116608,8.651474 203.906921,8.469765 
	C203.605026,8.980264 203.303116,9.490763 202.618286,10.000401 
	C200.996399,9.389791 199.288422,9.102812 198.605484,8.110435 
	C196.463806,4.998277 193.699371,6.274617 191.537613,7.260617 
	C190.254349,7.845927 189.785461,10.216761 188.902313,12.025755 
	C188.854233,12.266723 189.004211,12.734718 188.723480,12.777322 
	C187.921600,12.653158 187.400421,12.486391 186.905212,11.920774 
	C185.668579,7.423319 182.492828,6.805224 178.827362,7.052038 
	C169.107025,7.706555 159.388885,8.858337 149.664886,8.912230 
	C110.771645,9.127793 71.876503,9.007448 32.982094,8.979593 
	C31.345209,8.978421 29.367195,9.185006 28.139095,8.386200 
	C25.085428,6.399969 22.595444,7.409587 19.604202,8.999861 
	C18.148540,9.527712 17.027794,9.970846 16.023230,10.599603 
	C14.310395,11.671666 12.670524,12.860299 11.000000,13.999962 
z"/>
<path fill="#F6F8F9" opacity="1.000000" stroke="none" 
	d="
M276.081360,90.970581 
	C276.709503,91.600929 277.374786,92.198875 277.958466,92.868011 
	C279.413330,94.535919 280.831085,96.236214 282.631866,97.961754 
	C283.000000,107.354225 283.000000,116.708458 283.000000,126.531342 
	C280.957397,127.300774 278.914764,127.601555 276.237549,127.942818 
	C275.434418,127.994591 275.265900,128.005875 275.017242,127.617378 
	C275.121948,126.155647 275.306793,125.093689 275.813538,123.916740 
	C276.138794,121.882553 276.142212,119.963356 276.041138,117.584846 
	C276.013947,112.398949 276.091187,107.672371 276.426910,102.686432 
	C276.300293,100.273201 275.915161,98.119339 275.373779,95.587311 
	C275.189941,94.126686 275.162354,93.044235 275.349182,91.860489 
	C275.804626,91.541290 275.977203,91.278412 276.081360,90.970581 
z"/>
<path fill="#0C2732" opacity="1.000000" stroke="none" 
	d="
M276.168457,102.945786 
	C276.091187,107.672371 276.013947,112.398949 275.840637,117.901459 
	C275.660278,120.462166 275.575958,122.246948 275.491638,124.031731 
	C275.306793,125.093689 275.121948,126.155647 274.810608,127.865776 
	C274.612732,129.356064 274.541321,130.198196 274.311401,131.350830 
	C274.147675,132.120651 274.142426,132.579956 273.918243,133.280838 
	C273.600708,134.364120 273.502136,135.205826 273.403534,136.047516 
	C273.279541,136.481705 273.155579,136.915894 272.847717,137.956406 
	C272.189758,140.381622 271.715668,142.200516 271.071167,144.323364 
	C270.467255,146.165970 270.033752,147.704651 269.356689,149.447052 
	C268.881897,150.443665 268.650665,151.236588 268.203613,152.291458 
	C267.571655,153.826080 267.155579,155.098724 266.449646,156.581543 
	C265.711151,157.865463 265.262421,158.939224 264.752075,160.079773 
	C264.690460,160.146545 264.710480,160.327179 264.423157,160.531754 
	C262.827881,163.180298 261.519897,165.624283 259.958191,168.229004 
	C259.467163,168.925613 259.229858,169.461487 258.700439,170.116638 
	C257.925842,171.152054 257.443390,172.068192 256.680847,173.141113 
	C255.206726,175.044022 254.012695,176.790115 252.509216,178.680466 
	C250.777466,180.540985 249.355133,182.257233 247.636658,184.085785 
	C246.216202,185.438248 245.091843,186.678375 243.637726,187.981033 
	C242.338699,188.950180 241.369431,189.856796 240.254181,190.776642 
	C240.108200,190.789856 240.008148,191.065399 239.683716,191.110626 
	C238.401077,192.038284 237.442886,192.920731 236.243927,193.812500 
	C235.654236,194.133347 235.305298,194.444870 234.592285,194.786591 
	C230.395752,196.945892 226.563293,199.075012 222.730835,201.204117 
	C222.050217,201.426529 221.369614,201.648941 219.998077,202.010834 
	C215.548157,203.472107 211.789154,204.793915 207.650177,206.088120 
	C206.553268,206.293610 205.836334,206.526718 204.858795,206.618073 
	C204.077087,206.699982 203.555969,206.923645 202.697556,207.126587 
	C201.943893,207.263626 201.527557,207.421371 200.801270,207.463531 
	C199.671432,207.610107 198.851532,207.872284 197.659698,208.085175 
	C196.556503,208.173172 195.825211,208.310410 194.713623,208.321198 
	C192.534424,208.544174 190.735504,208.893600 188.936600,209.243027 
	C187.265091,209.264465 185.593597,209.285889 183.261292,209.248322 
	C182.047653,209.344513 181.494812,209.499710 180.941971,209.654907 
	C146.261200,209.691376 111.580421,209.727844 76.017685,209.752747 
	C68.793922,209.661469 68.760124,209.661713 68.807159,216.144623 
	C68.823761,218.433075 69.050049,220.719971 69.180595,223.007584 
	C69.062050,223.988007 68.839851,224.968430 68.839912,225.948853 
	C68.842239,263.998779 68.864845,302.048676 68.873680,340.981812 
	C68.860458,345.794006 68.858337,349.722961 68.856216,353.651947 
	C66.190956,353.861084 63.525688,354.070221 60.010948,354.265259 
	C50.023258,354.224182 40.885063,354.186890 31.746832,354.173157 
	C22.763433,354.159668 22.772299,354.169891 22.515936,345.432983 
	C22.492109,344.620941 22.262503,343.814972 22.287222,342.578064 
	C22.467871,341.651123 22.508818,341.152252 22.508915,340.653381 
	C22.529978,233.092285 22.549583,125.531197 22.549822,17.970104 
	C22.549826,16.658382 22.299768,15.346662 22.402271,13.715302 
	C22.716492,13.142717 22.794880,12.889770 23.349609,12.648550 
	C25.488104,12.610778 27.150246,12.518440 28.812412,12.518010 
	C75.910416,12.505814 123.008423,12.507000 170.106415,12.481181 
	C171.744522,12.480284 173.382477,12.225074 175.472931,12.164331 
	C179.576660,12.266719 183.227951,12.293171 186.879257,12.319624 
	C187.400421,12.486391 187.921600,12.653158 188.890427,13.006292 
	C190.235504,13.176420 191.132919,13.160181 192.384140,13.246856 
	C193.956787,13.431622 195.175644,13.513472 196.606705,13.817943 
	C197.593475,14.076387 198.368011,14.112211 199.485962,14.301645 
	C200.570541,14.545109 201.311722,14.634962 202.288101,14.978416 
	C203.405945,15.265780 204.288574,15.299542 205.171219,15.333305 
	C205.577713,15.471920 205.984192,15.610534 206.937897,16.025978 
	C210.360168,17.056005 213.235214,17.809204 216.374237,18.739407 
	C217.248398,19.080956 217.858566,19.245504 218.630005,19.678349 
	C219.564148,20.154202 220.337051,20.361759 221.423187,20.773178 
	C226.419571,23.361809 231.102737,25.746578 235.870972,28.429571 
	C236.665115,29.057388 237.374207,29.386984 238.227814,29.875984 
	C238.372360,30.035387 238.792526,30.128584 238.877716,30.425985 
	C239.668259,31.078403 240.373627,31.433420 241.078979,31.788437 
	C241.849045,32.488277 242.619110,33.188118 243.827118,34.238503 
	C248.101288,38.084038 251.937515,41.579025 255.773743,45.074020 
	C256.983673,46.942074 258.193573,48.810123 259.731018,51.168751 
	C260.929504,52.883316 261.800476,54.107304 262.785706,55.191338 
	C262.899902,55.051380 262.640686,55.303047 262.673889,55.656769 
	C264.039062,58.231392 265.371002,60.452290 266.717468,63.010094 
	C267.601349,65.222878 268.470703,67.098755 269.334595,69.345772 
	C270.598938,73.463768 271.868713,77.210617 273.138519,80.957466 
	C273.129944,81.413185 273.121338,81.868896 273.174561,82.953957 
	C273.542358,84.371544 273.848389,85.159790 274.104309,86.294327 
	C274.191376,87.081161 274.328552,87.521706 274.380707,88.303955 
	C274.575378,89.751030 274.855072,90.856407 275.134766,91.961777 
	C275.162354,93.044235 275.189941,94.126686 275.263672,95.982178 
	C275.596008,98.818733 275.882233,100.882256 276.168457,102.945786 
M144.182755,159.367889 
	C144.511398,159.284500 144.776733,159.106659 145.633514,158.901855 
	C146.357742,158.450546 147.081985,157.999222 148.404587,157.506424 
	C148.923813,157.225082 149.443039,156.943741 150.691605,156.694077 
	C157.762192,154.696350 164.832779,152.698624 172.784515,150.903290 
	C174.883118,150.846054 176.981720,150.788818 179.672348,151.157211 
	C181.133118,151.217529 182.593903,151.277847 184.746460,151.690216 
	C185.514359,151.738434 186.282242,151.786652 187.553650,152.363968 
	C195.047607,155.146439 202.541550,157.928894 210.409805,161.177277 
	C211.118805,161.518143 211.827789,161.859009 212.853439,162.815353 
	C216.231796,165.073486 219.610138,167.331635 223.977753,170.251022 
	C225.710632,163.608948 227.228729,157.790100 229.003693,151.344742 
	C229.005386,150.897202 229.007095,150.449677 229.450043,149.448929 
	C229.557831,148.289688 229.665604,147.130447 230.028793,145.337952 
	C230.003235,144.887512 229.977676,144.437088 230.345840,143.298721 
	C230.475540,140.522568 230.605255,137.746399 230.926514,134.136703 
	C230.860199,132.434509 230.793884,130.732315 230.960663,128.187820 
	C230.607986,125.469101 230.255310,122.750374 230.054550,119.233734 
	C229.891190,118.171028 229.727814,117.108315 229.760605,115.421272 
	C229.479233,114.622650 229.197861,113.824020 229.019455,112.348625 
	C228.895569,111.913315 228.771698,111.477997 228.808350,110.279472 
	C226.473938,100.754509 223.082458,91.738731 216.173233,83.714157 
	C212.916306,80.374130 209.659363,77.034096 206.198502,73.061859 
	C204.779037,72.087379 203.359558,71.112892 201.726349,69.836815 
	C201.726349,69.836815 201.375809,69.719437 201.132721,69.084175 
	C198.381165,67.501953 195.629608,65.919731 192.342163,63.881058 
	C191.277374,63.419102 190.212601,62.957142 188.730652,61.961201 
	C187.228455,61.464523 185.726257,60.967850 183.641479,60.066093 
	C177.740280,58.492435 171.839066,56.918777 165.480118,54.823540 
	C164.593399,54.800758 163.706696,54.777977 162.135742,54.486885 
	C161.406158,54.423668 160.676559,54.360451 159.469116,53.801395 
	C158.583908,53.807819 157.698715,53.814243 156.020844,53.535675 
	C154.335968,53.426231 152.651077,53.316784 150.407318,52.734688 
	C149.210449,52.744938 148.013596,52.755188 145.935226,52.524914 
	C120.638390,52.465988 95.341545,52.407066 69.347244,52.198341 
	C69.128288,52.791973 68.909332,53.385605 68.400116,54.807903 
	C68.313782,59.639549 68.227440,64.471191 67.534966,69.322273 
	C66.834381,69.682053 66.133804,70.041832 64.689018,70.426262 
	C61.149311,72.346542 57.609608,74.266823 53.416595,76.332474 
	C51.248669,80.556358 49.080746,84.780243 46.616005,89.545479 
	C46.566681,90.348541 46.517357,91.151611 46.104584,92.737823 
	C46.755783,95.819145 47.406982,98.900475 48.039978,102.571587 
	C48.360676,103.047333 48.681370,103.523079 49.006748,104.702599 
	C53.090912,112.267998 59.610283,116.074051 68.188576,117.922897 
	C68.234192,119.736717 68.305664,121.550316 68.321312,123.364395 
	C68.437988,136.888977 68.543602,150.413666 68.312958,164.653183 
	C68.484032,166.495239 67.363937,169.210922 71.667664,168.966858 
	C72.121666,168.944733 72.575676,168.922607 73.692177,169.299011 
	C75.804359,169.445465 77.916542,169.591919 80.748627,169.990753 
	C81.504662,169.973434 82.260689,169.956131 83.761612,170.254211 
	C89.503578,170.155426 95.245537,170.056641 101.729744,170.134964 
	C102.480606,170.041962 103.231476,169.948959 104.850479,170.070236 
	C115.776917,168.860413 126.654541,167.451660 137.287674,162.294815 
	C138.509384,161.718002 139.731094,161.141190 141.579285,160.615921 
	C142.284851,160.202438 142.990433,159.788956 144.182755,159.367889 
z"/>
<path fill="#FDFEFF" opacity="1.000000" stroke="none" 
	d="
M22.166435,14.034941 
	C22.299768,15.346662 22.549826,16.658382 22.549822,17.970104 
	C22.549583,125.531197 22.529978,233.092285 22.508915,340.653381 
	C22.508818,341.152252 22.467871,341.651123 21.878172,342.583984 
	C17.542887,343.591705 19.440775,346.505280 19.080982,348.469025 
	C18.782356,350.098938 18.639481,351.757324 18.342094,353.387512 
	C17.938723,355.598633 17.453764,357.794922 17.003807,359.997559 
	C14.902093,359.572174 12.800376,359.146820 10.583114,358.698090 
	C10.383345,357.987000 9.941278,357.302856 10.076189,356.762787 
	C12.949103,345.261475 6.219915,334.569092 7.680297,322.899261 
	C9.137846,311.252106 8.000000,299.280121 8.000000,287.450562 
	C8.000000,275.620972 8.000000,263.791412 8.000000,251.961838 
	C8.000000,240.132263 8.000000,228.302689 8.000000,216.473114 
	C8.000000,204.643539 8.000000,192.813980 8.000000,180.984406 
	C8.000000,169.154831 8.000000,157.325256 8.000000,145.495682 
	C8.000000,133.666107 8.000000,121.836540 8.000000,110.006966 
	C8.000000,98.177391 8.000000,86.347824 8.000000,74.518250 
	C8.000000,62.688675 7.883294,50.857517 8.044308,39.030132 
	C8.139033,32.072014 8.616103,25.116096 9.066265,18.168589 
	C9.147456,16.915546 9.933782,15.708192 10.697279,14.239853 
	C12.670524,12.860299 14.310395,11.671666 16.023230,10.599603 
	C17.027794,9.970846 18.148540,9.527712 19.602623,9.355122 
	C20.027285,11.497026 17.795000,14.428613 22.166435,14.034941 
z"/>
<path fill="#F6F8F9" opacity="1.000000" stroke="none" 
	d="
M258.992554,169.997345 
	C259.229858,169.461487 259.467163,168.925613 260.303528,168.174500 
	C262.171875,165.415207 263.441193,162.871201 264.710480,160.327179 
	C264.710480,160.327179 264.690460,160.146545 265.105774,159.933380 
	C265.927216,158.603928 266.333344,157.487656 266.739471,156.371384 
	C267.155579,155.098724 267.571655,153.826080 268.538574,152.177673 
	C269.259644,150.949051 269.429932,150.096191 269.600220,149.243332 
	C270.033752,147.704651 270.467255,146.165970 271.396790,144.255951 
	C272.593414,142.588089 273.293945,141.291595 273.994507,139.995087 
	C277.412842,145.696228 274.717468,151.766068 274.646667,157.609863 
	C274.630615,158.936584 270.502380,160.213501 267.055695,162.217636 
	C266.856293,164.634384 266.939117,168.892639 265.985077,172.904343 
	C265.529358,174.820511 263.148560,176.311203 261.560577,177.916351 
	C260.088043,179.404831 258.534546,180.816391 256.972809,182.212738 
	C254.774216,184.178497 252.535110,186.098953 250.291275,188.058029 
	C249.482544,190.314117 248.493530,195.185776 247.613815,195.166122 
	C243.535629,195.075027 239.939636,200.472275 235.341537,195.861908 
	C234.993103,195.175354 234.974747,194.965881 234.956360,194.756409 
	C235.305298,194.444870 235.654236,194.133347 236.617798,193.859589 
	C238.157654,192.953384 239.082901,192.009399 240.008148,191.065399 
	C240.008148,191.065399 240.108200,190.789856 240.641586,190.831055 
	C242.105804,189.887680 243.036652,188.903091 243.967484,187.918503 
	C245.091843,186.678375 246.216202,185.438248 247.996948,184.072601 
	C250.041794,182.143463 251.430222,180.339828 252.818649,178.536209 
	C254.012695,176.790115 255.206726,175.044022 257.008911,173.127075 
	C258.075562,171.969925 258.534058,170.983627 258.992554,169.997345 
z"/>
<path fill="#F6F8F9" opacity="1.000000" stroke="none" 
	d="
M17.388355,359.992065 
	C17.453764,357.794922 17.938723,355.598633 18.342094,353.387512 
	C18.639481,351.757324 18.782356,350.098938 19.080982,348.469025 
	C19.440775,346.505280 17.542887,343.591705 21.719393,343.012085 
	C22.262503,343.814972 22.492109,344.620941 22.515936,345.432983 
	C22.772299,354.169891 22.763433,354.159668 31.746832,354.173157 
	C40.885063,354.186890 50.023258,354.224182 59.598602,354.439056 
	C58.754120,355.749298 57.483582,357.827240 56.189133,357.842255 
	C46.146439,357.958679 36.096508,357.493835 26.054962,357.637695 
	C23.283628,357.677399 20.533026,359.163910 17.388355,359.992065 
z"/>
<path fill="#F6F8F9" opacity="1.000000" stroke="none" 
	d="
M201.111206,207.579117 
	C201.527557,207.421371 201.943893,207.263626 202.814728,207.339661 
	C203.885941,207.302246 204.502670,207.031021 205.119385,206.759827 
	C205.836334,206.526718 206.553268,206.293610 207.833252,206.330963 
	C209.603683,206.432953 210.811050,206.264496 212.018433,206.096054 
	C212.811310,207.431885 213.604202,208.767731 215.085144,211.262817 
	C206.099472,213.098190 197.680054,213.328644 189.460815,210.461487 
	C191.528641,209.503448 193.311295,208.975555 195.093933,208.447647 
	C195.825211,208.310410 196.556503,208.173172 197.827423,208.322983 
	C199.281784,208.266403 200.196503,207.922760 201.111206,207.579117 
z"/>
<path fill="#F6F8F9" opacity="1.000000" stroke="none" 
	d="
M68.886551,354.082886 
	C68.858337,349.722961 68.860458,345.794006 69.023926,341.428772 
	C70.090141,341.512177 71.622360,341.873169 71.800362,342.576752 
	C73.191895,348.077240 74.323425,353.643463 75.581268,359.400238 
	C70.925888,361.033417 69.810867,360.385498 68.886551,354.082886 
z"/>
<path fill="#F6F8F9" opacity="1.000000" stroke="none" 
	d="
M69.546623,223.001984 
	C69.050049,220.719971 68.823761,218.433075 68.807159,216.144623 
	C68.760124,209.661713 68.793922,209.661469 75.568939,209.899414 
	C75.442619,211.142776 74.810112,212.197464 74.341141,213.320450 
	C73.681999,214.898819 73.239662,216.571594 72.528755,218.123444 
	C71.762459,219.796188 70.793297,221.376022 69.546623,223.001984 
z"/>
<path fill="#E4EBEE" opacity="1.000000" stroke="none" 
	d="
M234.592285,194.786591 
	C234.974747,194.965881 234.993103,195.175354 235.021988,195.700241 
	C231.553162,199.061218 228.868591,203.723801 222.869659,201.565002 
	C226.563293,199.075012 230.395752,196.945892 234.592285,194.786591 
z"/>
<path fill="#C6CFD5" opacity="1.000000" stroke="none" 
	d="
M212.345917,205.925598 
	C210.811050,206.264496 209.603683,206.432953 208.213226,206.358566 
	C211.789154,204.793915 215.548157,203.472107 219.689667,202.199432 
	C217.605927,203.417404 215.139664,204.586258 212.345917,205.925598 
z"/>
<path fill="#C6CFD5" opacity="1.000000" stroke="none" 
	d="
M194.713623,208.321198 
	C193.311295,208.975555 191.528641,209.503448 189.351715,210.094482 
	C188.957428,210.157608 188.865051,209.702179 188.900818,209.472595 
	C190.735504,208.893600 192.534424,208.544174 194.713623,208.321198 
z"/>
<path fill="#E4EBEE" opacity="1.000000" stroke="none" 
	d="
M273.982544,139.707184 
	C273.293945,141.291595 272.593414,142.588089 271.567200,143.952011 
	C271.715668,142.200516 272.189758,140.381622 272.892090,138.295898 
	C273.403778,138.492477 273.687195,138.955887 273.982544,139.707184 
z"/>
<path fill="#F6F8F9" opacity="1.000000" stroke="none" 
	d="
M274.137177,133.039246 
	C274.142426,132.579956 274.147675,132.120651 274.563690,131.358017 
	C275.310089,131.035172 275.645691,131.015671 275.981323,130.996170 
	C275.889191,132.293594 275.797089,133.591034 275.344727,134.662674 
	C274.702026,133.971008 274.419617,133.505127 274.137177,133.039246 
z"/>
<path fill="#E4EBEE" opacity="1.000000" stroke="none" 
	d="
M273.918243,133.280838 
	C274.419617,133.505127 274.702026,133.971008 275.004822,134.724548 
	C274.657104,135.348129 274.288971,135.684067 273.662201,136.033752 
	C273.502136,135.205826 273.600708,134.364120 273.918243,133.280838 
z"/>
<path fill="#E4EBEE" opacity="1.000000" stroke="none" 
	d="
M275.991394,130.623444 
	C275.645691,131.015671 275.310089,131.035172 274.722168,131.047485 
	C274.541321,130.198196 274.612732,129.356064 274.890747,128.265549 
	C275.265900,128.005875 275.434418,127.994591 275.856873,128.000122 
	C276.074341,128.761536 276.037903,129.506119 275.991394,130.623444 
z"/>
<path fill="#C6CFD5" opacity="1.000000" stroke="none" 
	d="
M181.020538,209.924637 
	C181.494812,209.499710 182.047653,209.344513 182.857727,209.356598 
	C182.443008,209.747375 181.771042,209.970871 181.020538,209.924637 
z"/>
<path fill="#F6F8F9" opacity="1.000000" stroke="none" 
	d="
M22.402271,13.715302 
	C17.795000,14.428613 20.027285,11.497026 19.989799,9.353902 
	C22.595444,7.409587 25.085428,6.399969 28.139095,8.386200 
	C29.367195,9.185006 31.345209,8.978421 32.982094,8.979593 
	C71.876503,9.007448 110.771645,9.127793 149.664886,8.912230 
	C159.388885,8.858337 169.107025,7.706555 178.827362,7.052038 
	C182.492828,6.805224 185.668579,7.423319 186.905212,11.920774 
	C183.227951,12.293171 179.576660,12.266719 175.176544,11.870598 
	C173.782440,11.372074 173.137177,11.130642 172.491837,11.130404 
	C123.870522,11.112438 75.249184,11.102114 26.627979,11.176860 
	C25.375664,11.178786 24.124804,12.128904 22.873266,12.636820 
	C22.794880,12.889770 22.716492,13.142717 22.402271,13.715302 
z"/>
<path fill="#F6F8F9" opacity="1.000000" stroke="none" 
	d="
M235.785904,28.131350 
	C231.102737,25.746578 226.419571,23.361809 221.322266,20.446804 
	C220.095001,19.747728 219.281876,19.578890 218.468750,19.410049 
	C217.858566,19.245504 217.248398,19.080956 216.287537,18.411026 
	C213.591354,16.957596 211.245834,16.009542 208.900330,15.061492 
	C212.388458,15.130796 216.166885,14.396297 219.274689,15.518689 
	C221.852875,16.449808 223.367172,16.395929 225.533463,15.069259 
	C229.007111,12.941941 231.746841,14.410786 231.917435,18.583759 
	C232.058380,22.031891 232.059723,24.185087 236.870010,23.389883 
	C240.093842,22.856941 241.478470,26.025389 240.573822,29.707561 
	C239.727844,30.083031 239.260178,30.105808 238.792526,30.128584 
	C238.792526,30.128584 238.372360,30.035387 238.171082,29.557278 
	C237.241821,28.763229 236.513870,28.447290 235.785904,28.131350 
z"/>
<path fill="#F6F8F9" opacity="1.000000" stroke="none" 
	d="
M256.163086,45.047478 
	C251.937515,41.579025 248.101288,38.084038 244.137726,34.272358 
	C244.771210,33.387547 245.529861,32.342903 246.293274,32.339413 
	C248.717499,32.328304 251.294678,33.329807 253.533737,32.787670 
	C256.980743,31.953062 258.048431,32.926037 258.030182,36.215004 
	C258.017548,38.487854 258.482483,40.768776 258.392487,43.032509 
	C258.365234,43.718620 257.197693,44.359398 256.163086,45.047478 
z"/>
<path fill="#F6F8F9" opacity="1.000000" stroke="none" 
	d="
M269.340057,68.974625 
	C268.470703,67.098755 267.601349,65.222878 266.811646,62.571960 
	C266.921234,61.202450 266.951172,60.607983 266.981110,60.013512 
	C269.735504,60.013512 272.489868,60.013512 274.378113,60.013512 
	C274.378113,63.293392 274.354523,66.017876 274.384521,68.741768 
	C274.416504,71.644875 274.499146,74.547432 273.995819,77.494507 
	C272.067993,74.684074 270.704041,71.829353 269.340057,68.974625 
z"/>
<path fill="#F6F8F9" opacity="1.000000" stroke="none" 
	d="
M196.394485,13.595322 
	C195.175644,13.513472 193.956787,13.431622 192.186310,12.957243 
	C190.739929,12.304739 189.845169,12.044762 188.950409,11.784786 
	C189.785461,10.216761 190.254349,7.845927 191.537613,7.260617 
	C193.699371,6.274617 196.463806,4.998277 198.605484,8.110435 
	C199.288422,9.102812 200.996399,9.389791 202.617676,9.999771 
	C203.000000,10.000000 202.998779,9.998812 202.998779,9.998811 
	C203.310883,11.104263 203.622986,12.209717 203.689331,13.675594 
	C202.980026,14.265617 202.516464,14.495217 202.052902,14.724815 
	C201.311722,14.634962 200.570541,14.545109 199.309967,14.027332 
	C197.991882,13.598047 197.193192,13.596685 196.394485,13.595322 
z"/>
<path fill="#F6F8F9" opacity="1.000000" stroke="none" 
	d="
M260.957794,50.856453 
	C263.408295,47.193432 264.938538,49.646606 265.849884,51.881191 
	C266.540527,53.574677 266.313660,55.642357 265.967590,57.550098 
	C264.506958,56.805466 263.573822,56.054253 262.640686,55.303047 
	C262.640686,55.303047 262.899902,55.051380 262.874939,54.836388 
	C262.219269,53.366413 261.588531,52.111431 260.957794,50.856453 
z"/>
<path fill="#E4EBEE" opacity="1.000000" stroke="none" 
	d="
M269.334595,69.345772 
	C270.704041,71.829353 272.067993,74.684074 273.698242,77.768768 
	C273.856934,78.848877 273.749390,79.699020 273.390167,80.753311 
	C271.868713,77.210617 270.598938,73.463768 269.334595,69.345772 
z"/>
<path fill="#BFC9D0" opacity="1.000000" stroke="none" 
	d="
M208.632141,15.062187 
	C211.245834,16.009542 213.591354,16.957596 216.023560,18.234026 
	C213.235214,17.809204 210.360168,17.056005 207.262360,16.020170 
	C207.481064,15.512650 207.922501,15.287766 208.632141,15.062187 
z"/>
<path fill="#F6F8F9" opacity="1.000000" stroke="none" 
	d="
M274.465759,87.962250 
	C274.328552,87.521706 274.191376,87.081161 274.348328,86.086067 
	C274.758362,84.690567 274.874298,83.849609 274.990234,83.008659 
	C277.263031,84.050621 279.188782,85.211365 276.069153,87.940628 
	C275.138977,87.977814 274.802368,87.970024 274.465759,87.962250 
z"/>
<path fill="#E4EBEE" opacity="1.000000" stroke="none" 
	d="
M262.673889,55.656769 
	C263.573822,56.054253 264.506958,56.805466 265.704712,57.777706 
	C266.147156,58.554157 266.324982,59.109577 266.741943,59.839256 
	C266.951172,60.607983 266.921234,61.202450 266.797119,62.235054 
	C265.371002,60.452290 264.039062,58.231392 262.673889,55.656769 
z"/>
<path fill="#E4EBEE" opacity="1.000000" stroke="none" 
	d="
M274.380737,88.303955 
	C274.802368,87.970024 275.138977,87.977814 275.727875,87.994751 
	C275.998962,88.746101 276.017731,89.488304 276.058929,90.600540 
	C275.977203,91.278412 275.804626,91.541290 275.349182,91.860489 
	C274.855072,90.856407 274.575378,89.751030 274.380737,88.303955 
z"/>
<path fill="#E4EBEE" opacity="1.000000" stroke="none" 
	d="
M260.717072,50.885754 
	C261.588531,52.111431 262.219269,53.366413 262.760742,54.976341 
	C261.800476,54.107304 260.929504,52.883316 260.028534,51.328850 
	C259.998566,50.998371 260.476349,50.915054 260.717072,50.885754 
z"/>
<path fill="#BFC9D0" opacity="1.000000" stroke="none" 
	d="
M188.902313,12.025754 
	C189.845169,12.044762 190.739929,12.304739 191.832520,12.854328 
	C191.132919,13.160181 190.235504,13.176420 189.171143,12.963689 
	C189.004211,12.734718 188.854233,12.266723 188.902313,12.025754 
z"/>
<path fill="#BFC9D0" opacity="1.000000" stroke="none" 
	d="
M202.288101,14.978418 
	C202.516464,14.495217 202.980026,14.265617 203.721069,14.021667 
	C204.362946,14.294829 204.727341,14.582340 205.131470,15.101578 
	C204.288574,15.299542 203.405945,15.265780 202.288101,14.978418 
z"/>
<path fill="#E4EBEE" opacity="1.000000" stroke="none" 
	d="
M274.724854,82.989929 
	C274.874298,83.849609 274.758362,84.690567 274.398407,85.739777 
	C273.848389,85.159790 273.542358,84.371544 273.317200,83.267960 
	C273.751831,82.958817 274.105652,82.965004 274.724854,82.989929 
z"/>
<path fill="#BFC9D0" opacity="1.000000" stroke="none" 
	d="
M238.877716,30.425985 
	C239.260178,30.105808 239.727844,30.083031 240.542786,30.125015 
	C240.970978,30.541971 241.051880,30.894169 241.105881,31.517403 
	C240.373627,31.433420 239.668259,31.078403 238.877716,30.425985 
z"/>
<path fill="#F6F8F9" opacity="1.000000" stroke="none" 
	d="
M203.000610,10.000630 
	C203.303116,9.490763 203.605026,8.980264 203.906921,8.469765 
	C204.116608,8.651474 204.326279,8.833184 204.535950,9.014892 
	C204.213211,9.319701 203.890457,9.624514 203.283234,9.964069 
	C202.998779,9.998812 203.000000,10.000000 203.000610,10.000630 
z"/>
<path fill="#E4EBEE" opacity="1.000000" stroke="none" 
	d="
M276.426941,102.686432 
	C275.882233,100.882256 275.596008,98.818733 275.419922,96.360336 
	C275.915161,98.119339 276.300293,100.273201 276.426941,102.686432 
z"/>
<path fill="#E4EBEE" opacity="1.000000" stroke="none" 
	d="
M275.813538,123.916740 
	C275.575958,122.246948 275.660278,120.462166 275.945129,118.360771 
	C276.142212,119.963356 276.138794,121.882553 275.813538,123.916740 
z"/>
<path fill="#FEFEFE" opacity="1.000000" stroke="none" 
	d="
M54.069901,76.187103 
	C57.609608,74.266823 61.149311,72.346542 65.383118,70.604660 
	C66.765175,70.289650 67.453140,69.796249 68.141106,69.302841 
	C68.227440,64.471191 68.313782,59.639549 68.828201,54.316620 
	C69.519089,53.332935 69.781898,52.840538 70.044708,52.348141 
	C95.341545,52.407066 120.638390,52.465988 146.505951,52.923985 
	C148.373199,53.284481 149.669693,53.245911 150.966202,53.207340 
	C152.651077,53.316784 154.335968,53.426231 156.525146,53.936527 
	C158.001968,54.323997 158.974472,54.310616 159.946976,54.297234 
	C160.676559,54.360451 161.406158,54.423668 162.576965,54.885651 
	C163.991409,55.304653 164.964645,55.324886 165.937866,55.345119 
	C171.839066,56.918777 177.740280,58.492435 183.890579,60.670586 
	C185.123093,64.497444 186.750732,65.075432 189.147812,62.495186 
	C190.212601,62.957142 191.277374,63.419102 192.658524,64.438530 
	C195.775192,66.570480 198.575500,68.144958 201.375809,69.719437 
	C201.375809,69.719437 201.726349,69.836815 201.856140,70.338188 
	C203.458099,71.791061 204.930267,72.742561 206.402435,73.694061 
	C209.659363,77.034096 212.916306,80.374130 216.143982,84.480873 
	C216.078201,86.166336 216.041641,87.085075 215.870880,88.058914 
	C215.823181,88.074303 215.909653,88.034599 216.345322,88.042511 
	C221.360626,93.559059 224.554657,99.669067 225.618271,106.907349 
	C225.837891,108.401909 227.597824,109.670135 228.647812,111.042686 
	C228.771698,111.477997 228.895569,111.913315 228.723999,112.860382 
	C228.807159,114.263298 229.185806,115.154457 229.564453,116.045609 
	C229.727814,117.108315 229.891190,118.171028 229.699249,119.908066 
	C229.805161,123.398300 230.266357,126.214211 230.727554,129.030121 
	C230.793884,130.732315 230.860199,132.434509 230.467438,134.658356 
	C229.989624,138.115540 229.970871,141.051102 229.952118,143.986649 
	C229.977676,144.437088 230.003235,144.887512 229.558426,145.658630 
	C225.705246,147.254120 226.970337,148.620514 229.008804,150.002136 
	C229.007095,150.449677 229.005386,150.897202 228.528046,151.742493 
	C226.533691,156.367386 225.014984,160.594528 223.831497,163.888687 
	C219.577805,163.252655 216.057297,162.726273 212.536789,162.199875 
	C211.827789,161.859009 211.118805,161.518143 210.165527,160.614670 
	C207.578674,158.558975 205.414536,156.505630 202.855942,155.690704 
	C197.700958,154.048752 192.331253,153.080841 187.050140,151.834869 
	C186.282242,151.786652 185.514359,151.738434 184.278748,151.219559 
	C182.234146,150.743118 180.657227,150.737335 179.080322,150.731567 
	C176.981720,150.788818 174.883118,150.846054 172.112946,150.561203 
	C168.472855,150.490967 165.334076,150.245590 162.574966,151.153702 
	C158.236359,152.581680 154.153442,154.786514 149.962265,156.662415 
	C149.443039,156.943741 148.923813,157.225082 147.746216,157.380371 
	C146.384811,157.781021 145.681778,158.307709 144.978745,158.834381 
	C144.776733,159.106659 144.511398,159.284500 143.598938,159.265747 
	C142.327667,159.630539 141.640228,160.097458 140.952789,160.564392 
	C139.731094,161.141190 138.509384,161.718002 136.529053,162.209778 
	C130.792694,162.863373 125.072884,162.325668 121.031761,164.675217 
	C116.354790,167.394470 111.760757,167.357712 106.991722,168.079605 
	C105.923439,168.241318 104.982117,169.241699 103.982346,169.855957 
	C103.231476,169.948959 102.480606,170.041962 101.064301,169.752563 
	C94.604820,169.559738 88.810768,169.749283 83.016724,169.938828 
	C82.260689,169.956131 81.504662,169.973434 80.297028,169.511139 
	C77.573509,168.987839 75.301590,168.944153 73.029678,168.900467 
	C72.575676,168.922607 72.121666,168.944733 71.361496,168.489990 
	C70.254448,166.654846 69.453568,165.296585 68.652687,163.938309 
	C68.543602,150.413666 68.437988,136.888977 68.321312,123.364395 
	C68.305664,121.550316 68.234192,119.736717 68.353821,117.281982 
	C67.298882,115.619850 65.823761,113.543716 64.904106,113.765976 
	C61.512093,114.585770 60.111996,112.776421 57.883869,110.763214 
	C55.180290,108.320404 53.721554,103.853661 49.002068,103.998825 
	C48.681370,103.523079 48.360676,103.047333 48.318771,102.033936 
	C47.887726,98.315750 47.177879,95.135208 46.468037,91.954674 
	C46.517357,91.151611 46.566681,90.348541 47.052856,89.085876 
	C49.683109,84.479881 51.876503,80.333488 54.069901,76.187103 
M74.246971,106.479210 
	C77.802032,108.532257 84.139893,105.821976 84.433159,101.952171 
	C84.795326,97.173172 84.973595,92.368362 84.953735,87.575851 
	C84.936218,83.350952 81.979660,82.187256 77.620773,84.643806 
	C77.331955,84.473251 77.140182,84.227081 76.929634,83.187706 
	C76.102722,82.924156 75.275803,82.660606 73.619507,82.253365 
	C68.246841,80.442528 63.928043,82.397171 59.410480,85.732498 
	C58.356564,85.877907 57.302647,86.023315 56.248730,86.168724 
	C57.095547,86.862961 57.942364,87.557198 58.676834,89.134926 
	C58.735462,92.331818 58.794090,95.528702 58.135601,98.994843 
	C57.962933,99.824020 57.790264,100.653198 57.617592,101.482384 
	C58.434959,101.264496 59.252327,101.046608 60.597076,101.068634 
	C61.252121,101.768707 61.907162,102.468781 62.257652,103.931335 
	C61.972786,105.093704 61.687923,106.256073 61.526081,106.916466 
	C64.372353,107.397682 66.799759,107.808075 69.549980,108.273048 
	C69.674316,107.578705 69.864388,106.517334 70.679886,105.196609 
	C71.128540,105.171280 71.577187,105.145950 72.310577,105.600319 
	C72.847900,105.670006 73.385223,105.739685 74.246971,106.479210 
M74.474022,76.089165 
	C74.231033,76.230927 73.988052,76.372688 73.745064,76.514450 
	C73.995377,76.645378 74.299545,76.930069 74.481667,76.866287 
	C74.685387,76.794937 74.778481,76.407722 74.474022,76.089165 
M185.237976,146.533493 
	C184.850067,146.408249 184.466766,146.261917 184.070419,146.175339 
	C183.989883,146.157745 183.860168,146.365250 183.753128,146.468994 
	C184.140915,146.593994 184.528687,146.718994 185.237976,146.533493 
z"/>
<path fill="#BFC9D0" opacity="1.000000" stroke="none" 
	d="
M23.349609,12.648550 
	C24.124804,12.128904 25.375664,11.178786 26.627979,11.176860 
	C75.249184,11.102114 123.870522,11.112438 172.491837,11.130404 
	C173.137177,11.130642 173.782440,11.372074 174.724121,11.794662 
	C173.382477,12.225074 171.744522,12.480284 170.106415,12.481181 
	C123.008423,12.507000 75.910416,12.505814 28.812412,12.518010 
	C27.150246,12.518440 25.488104,12.610778 23.349609,12.648550 
z"/>
<path fill="#E4E9EC" opacity="1.000000" stroke="none" 
	d="
M212.695114,162.507614 
	C216.057297,162.726273 219.577805,163.252655 223.831497,163.888687 
	C225.014984,160.594528 226.533691,156.367386 228.399612,152.055740 
	C227.228729,157.790100 225.710632,163.608948 223.977753,170.251022 
	C219.610138,167.331635 216.231796,165.073486 212.695114,162.507614 
z"/>
<path fill="#E4E9EC" opacity="1.000000" stroke="none" 
	d="
M49.004410,104.350708 
	C53.721554,103.853661 55.180290,108.320404 57.883869,110.763214 
	C60.111996,112.776421 61.512093,114.585770 64.904106,113.765976 
	C65.823761,113.543716 67.298882,115.619850 68.256523,116.821548 
	C59.610283,116.074051 53.090912,112.267998 49.004410,104.350708 
z"/>
<path fill="#E4E9EC" opacity="1.000000" stroke="none" 
	d="
M104.416412,169.963104 
	C104.982117,169.241699 105.923439,168.241318 106.991722,168.079605 
	C111.760757,167.357712 116.354790,167.394470 121.031761,164.675217 
	C125.072884,162.325668 130.792694,162.863373 136.189041,162.200409 
	C126.654541,167.451660 115.776917,168.860413 104.416412,169.963104 
z"/>
<path fill="#E4E9EC" opacity="1.000000" stroke="none" 
	d="
M228.728088,110.661079 
	C227.597824,109.670135 225.837891,108.401909 225.618271,106.907349 
	C224.554657,99.669067 221.360626,93.559059 216.347260,88.045067 
	C216.000000,88.000000 216.005096,88.003822 216.005096,88.003822 
	C216.041641,87.085075 216.078201,86.166336 216.216095,84.797768 
	C223.082458,91.738731 226.473938,100.754509 228.728088,110.661079 
z"/>
<path fill="#E4E9EC" opacity="1.000000" stroke="none" 
	d="
M187.301895,152.099411 
	C192.331253,153.080841 197.700958,154.048752 202.855942,155.690704 
	C205.414536,156.505630 207.578674,158.558975 209.978394,160.381714 
	C202.541550,157.928894 195.047607,155.146439 187.301895,152.099411 
z"/>
<path fill="#E4E9EC" opacity="1.000000" stroke="none" 
	d="
M150.326935,156.678253 
	C154.153442,154.786514 158.236359,152.581680 162.574966,151.153702 
	C165.334076,150.245590 168.472855,150.490967 171.672363,150.460007 
	C164.832779,152.698624 157.762192,154.696350 150.326935,156.678253 
z"/>
<path fill="#E4E9EC" opacity="1.000000" stroke="none" 
	d="
M83.389168,170.096527 
	C88.810768,169.749283 94.604820,169.559738 100.693184,169.664032 
	C95.245537,170.056641 89.503578,170.155426 83.389168,170.096527 
z"/>
<path fill="#E4E9EC" opacity="1.000000" stroke="none" 
	d="
M53.743248,76.259789 
	C51.876503,80.333488 49.683109,84.479881 47.201263,88.815201 
	C49.080746,84.780243 51.248669,80.556358 53.743248,76.259789 
z"/>
<path fill="#E4E9EC" opacity="1.000000" stroke="none" 
	d="
M46.286308,92.346252 
	C47.177879,95.135208 47.887726,98.315750 48.327873,101.739044 
	C47.406982,98.900475 46.755783,95.819145 46.286308,92.346252 
z"/>
<path fill="#B9C5CA" opacity="1.000000" stroke="none" 
	d="
M201.254272,69.401810 
	C198.575500,68.144958 195.775192,66.570480 192.926468,64.666748 
	C195.629608,65.919731 198.381165,67.501953 201.254272,69.401810 
z"/>
<path fill="#E4E9EC" opacity="1.000000" stroke="none" 
	d="
M230.844116,128.608978 
	C230.266357,126.214211 229.805161,123.398300 229.623291,120.307022 
	C230.255310,122.750374 230.607986,125.469101 230.844116,128.608978 
z"/>
<path fill="#E4E9EC" opacity="1.000000" stroke="none" 
	d="
M230.148987,143.642685 
	C229.970871,141.051102 229.989624,138.115540 230.371674,135.075119 
	C230.605255,137.746399 230.475540,140.522568 230.148987,143.642685 
z"/>
<path fill="#E4EBEE" opacity="1.000000" stroke="none" 
	d="
M264.423157,160.531754 
	C263.441193,162.871201 262.171875,165.415207 260.557251,168.013748 
	C261.519897,165.624283 262.827881,163.180298 264.423157,160.531754 
z"/>
<path fill="#E4E9EC" opacity="1.000000" stroke="none" 
	d="
M68.482819,164.295746 
	C69.453568,165.296585 70.254448,166.654846 71.047165,168.347626 
	C67.363937,169.210922 68.484032,166.495239 68.482819,164.295746 
z"/>
<path fill="#E4E9EC" opacity="1.000000" stroke="none" 
	d="
M73.360931,169.099731 
	C75.301590,168.944153 77.573509,168.987839 79.937073,169.384949 
	C77.916542,169.591919 75.804359,169.445465 73.360931,169.099731 
z"/>
<path fill="#E4EBEE" opacity="1.000000" stroke="none" 
	d="
M252.509216,178.680466 
	C251.430222,180.339828 250.041794,182.143463 248.293076,183.960281 
	C249.355133,182.257233 250.777466,180.540985 252.509216,178.680466 
z"/>
<path fill="#E4E9EC" opacity="1.000000" stroke="none" 
	d="
M188.939240,62.228195 
	C186.750732,65.075432 185.123093,64.497444 184.181870,60.873127 
	C185.726257,60.967850 187.228455,61.464523 188.939240,62.228195 
z"/>
<path fill="#E4E9EC" opacity="1.000000" stroke="none" 
	d="
M229.229431,149.725525 
	C226.970337,148.620514 225.705246,147.254120 229.430725,145.975250 
	C229.665604,147.130447 229.557831,148.289688 229.229431,149.725525 
z"/>
<path fill="#E4E9EC" opacity="1.000000" stroke="none" 
	d="
M179.376343,150.944382 
	C180.657227,150.737335 182.234146,150.743118 183.932861,151.043549 
	C182.593903,151.277847 181.133118,151.217529 179.376343,150.944382 
z"/>
<path fill="#B9C5CA" opacity="1.000000" stroke="none" 
	d="
M206.300476,73.377960 
	C204.930267,72.742561 203.458099,71.791061 201.963013,70.488983 
	C203.359558,71.112892 204.779037,72.087379 206.300476,73.377960 
z"/>
<path fill="#B9C5CA" opacity="1.000000" stroke="none" 
	d="
M150.686768,52.971016 
	C149.669693,53.245911 148.373199,53.284481 146.946716,53.044243 
	C148.013596,52.755188 149.210449,52.744938 150.686768,52.971016 
z"/>
<path fill="#E4EBEE" opacity="1.000000" stroke="none" 
	d="
M258.700439,170.116623 
	C258.534058,170.983627 258.075562,171.969925 257.288971,172.970276 
	C257.443390,172.068192 257.925842,171.152054 258.700439,170.116623 
z"/>
<path fill="#E4EBEE" opacity="1.000000" stroke="none" 
	d="
M243.637726,187.981033 
	C243.036652,188.903091 242.105804,189.887680 240.787567,190.817841 
	C241.369431,189.856796 242.338699,188.950180 243.637726,187.981033 
z"/>
<path fill="#E4EBEE" opacity="1.000000" stroke="none" 
	d="
M239.683716,191.110626 
	C239.082901,192.009399 238.157654,192.953384 236.858551,193.850281 
	C237.442886,192.920731 238.401077,192.038284 239.683716,191.110626 
z"/>
<path fill="#C6CFD5" opacity="1.000000" stroke="none" 
	d="
M200.801270,207.463531 
	C200.196503,207.922760 199.281784,208.266403 198.199341,208.372253 
	C198.851532,207.872284 199.671432,207.610107 200.801270,207.463531 
z"/>
<path fill="#B9C5CA" opacity="1.000000" stroke="none" 
	d="
M159.708038,54.049316 
	C158.974472,54.310616 158.001968,54.323997 156.921478,54.079025 
	C157.698715,53.814243 158.583908,53.807819 159.708038,54.049316 
z"/>
<path fill="#B9C5CA" opacity="1.000000" stroke="none" 
	d="
M165.708984,55.084328 
	C164.964645,55.324886 163.991409,55.304653 162.919083,55.019806 
	C163.706696,54.777977 164.593399,54.800758 165.708984,55.084328 
z"/>
<path fill="#E4E9EC" opacity="1.000000" stroke="none" 
	d="
M229.662537,115.733444 
	C229.185806,115.154457 228.807159,114.263298 228.672516,113.198761 
	C229.197861,113.824020 229.479233,114.622650 229.662537,115.733444 
z"/>
<path fill="#E4EBEE" opacity="1.000000" stroke="none" 
	d="
M266.449646,156.581543 
	C266.333344,157.487656 265.927216,158.603928 265.167419,159.866608 
	C265.262421,158.939224 265.711151,157.865463 266.449646,156.581543 
z"/>
<path fill="#E4EBEE" opacity="1.000000" stroke="none" 
	d="
M269.356659,149.447052 
	C269.429932,150.096191 269.259644,150.949051 268.754395,151.915710 
	C268.650665,151.236588 268.881897,150.443665 269.356659,149.447052 
z"/>
<path fill="#BFC9D0" opacity="1.000000" stroke="none" 
	d="
M218.630005,19.678347 
	C219.281876,19.578890 220.095001,19.747728 221.009033,20.242943 
	C220.337051,20.361759 219.564148,20.154202 218.630005,19.678347 
z"/>
<path fill="#BFC9D0" opacity="1.000000" stroke="none" 
	d="
M235.870972,28.429571 
	C236.513870,28.447290 237.241821,28.763229 238.026535,29.397875 
	C237.374207,29.386984 236.665115,29.057388 235.870972,28.429571 
z"/>
<path fill="#B9C5CA" opacity="1.000000" stroke="none" 
	d="
M67.838036,69.312561 
	C67.453140,69.796249 66.765175,70.289650 65.755219,70.592339 
	C66.133804,70.041832 66.834381,69.682053 67.838036,69.312561 
z"/>
<path fill="#C6CFD5" opacity="1.000000" stroke="none" 
	d="
M204.858795,206.618073 
	C204.502670,207.031021 203.885941,207.302246 203.152039,207.360382 
	C203.555969,206.923645 204.077087,206.699982 204.858795,206.618073 
z"/>
<path fill="#BFC9D0" opacity="1.000000" stroke="none" 
	d="
M196.606705,13.817944 
	C197.193192,13.596685 197.991882,13.598047 198.966583,13.873722 
	C198.368011,14.112211 197.593475,14.076387 196.606705,13.817944 
z"/>
<path fill="#E4E9EC" opacity="1.000000" stroke="none" 
	d="
M141.266037,160.590149 
	C141.640228,160.097458 142.327667,159.630539 143.355560,159.269531 
	C142.990433,159.788956 142.284851,160.202438 141.266037,160.590149 
z"/>
<path fill="#E4E9EC" opacity="1.000000" stroke="none" 
	d="
M145.306122,158.868118 
	C145.681778,158.307709 146.384811,157.781021 147.447021,157.401123 
	C147.081985,157.999222 146.357742,158.450546 145.306122,158.868118 
z"/>
<path fill="#E4E9EC" opacity="1.000000" stroke="none" 
	d="
M69.695976,52.273239 
	C69.781898,52.840538 69.519089,53.332935 68.973328,53.902290 
	C68.909332,53.385605 69.128288,52.791973 69.695976,52.273239 
z"/>
<path fill="#162C36" opacity="1.000000" stroke="none" 
	d="
M62.562206,103.168854 
	C61.907162,102.468781 61.252121,101.768707 60.344982,100.686554 
	C59.679497,99.778175 59.266106,99.251884 58.852718,98.725594 
	C58.794090,95.528702 58.735462,92.331818 58.963337,88.554543 
	C59.527336,87.330147 59.804832,86.686134 60.082325,86.042122 
	C63.928043,82.397171 68.246841,80.442528 74.184906,82.607460 
	C75.515358,83.276138 76.280411,83.590721 77.045464,83.905304 
	C77.140182,84.227081 77.331955,84.473251 77.945839,84.985504 
	C78.944878,86.194267 79.618851,87.061317 80.242188,88.227356 
	C80.516151,89.004181 80.840759,89.482018 81.173691,90.401917 
	C81.139084,92.899994 81.096161,94.955994 80.784416,97.198608 
	C79.997185,98.581543 79.478783,99.777878 78.674606,101.139786 
	C76.957230,102.340576 75.525627,103.375793 73.802475,104.342949 
	C73.015900,104.556801 72.520866,104.838707 72.025841,105.120621 
	C71.577187,105.145950 71.128540,105.171280 70.065392,105.182373 
	C67.154671,104.501701 64.858437,103.835274 62.562206,103.168854 
z"/>
<path fill="#F8FBFB" opacity="1.000000" stroke="none" 
	d="
M80.292831,87.928368 
	C79.618851,87.061317 78.944878,86.194267 78.183075,85.009918 
	C81.979660,82.187256 84.936218,83.350952 84.953735,87.575851 
	C84.973595,92.368362 84.795326,97.173172 84.433159,101.952171 
	C84.139893,105.821976 77.802032,108.532257 74.122948,105.913147 
	C74.121796,105.044357 74.153496,104.732330 74.094025,104.411003 
	C75.525627,103.375793 76.957230,102.340576 79.001640,101.129639 
	C80.094040,99.639946 80.573639,98.325974 81.053238,97.012001 
	C81.096161,94.955994 81.139084,92.899994 81.393410,90.254608 
	C81.167488,89.086273 80.730156,88.507324 80.292831,87.928368 
z"/>
<path fill="#E4E9EC" opacity="1.000000" stroke="none" 
	d="
M62.409927,103.550095 
	C64.858437,103.835274 67.154671,104.501701 69.752670,105.312042 
	C69.864388,106.517334 69.674316,107.578705 69.549980,108.273048 
	C66.799759,107.808075 64.372353,107.397682 61.526081,106.916466 
	C61.687923,106.256073 61.972786,105.093704 62.409927,103.550095 
z"/>
<path fill="#E4E9EC" opacity="1.000000" stroke="none" 
	d="
M59.746403,85.887314 
	C59.804832,86.686134 59.527336,87.330147 59.019512,88.112793 
	C57.942364,87.557198 57.095547,86.862961 56.248730,86.168724 
	C57.302647,86.023315 58.356564,85.877907 59.746403,85.887314 
z"/>
<path fill="#E4E9EC" opacity="1.000000" stroke="none" 
	d="
M58.494160,98.860214 
	C59.266106,99.251884 59.679497,99.778175 60.081291,100.566589 
	C59.252327,101.046608 58.434959,101.264496 57.617592,101.482376 
	C57.790264,100.653198 57.962933,99.824020 58.494160,98.860214 
z"/>
<path fill="#CAD3D7" opacity="1.000000" stroke="none" 
	d="
M76.987549,83.546509 
	C76.280411,83.590721 75.515358,83.276138 74.599602,82.679306 
	C75.275803,82.660606 76.102722,82.924156 76.987549,83.546509 
z"/>
<path fill="#CAD3D7" opacity="1.000000" stroke="none" 
	d="
M73.802475,104.342949 
	C74.153496,104.732330 74.121796,105.044357 73.960739,105.578224 
	C73.385223,105.739685 72.847900,105.670006 72.168213,105.360466 
	C72.520866,104.838707 73.015900,104.556801 73.802475,104.342949 
z"/>
<path fill="#E4E9EC" opacity="1.000000" stroke="none" 
	d="
M74.696869,76.123566 
	C74.778481,76.407722 74.685387,76.794937 74.481667,76.866287 
	C74.299545,76.930069 73.995377,76.645378 73.745064,76.514450 
	C73.988052,76.372688 74.231033,76.230927 74.696869,76.123566 
z"/>
<path fill="#E4E9EC" opacity="1.000000" stroke="none" 
	d="
M185.077225,146.688751 
	C184.528687,146.718994 184.140915,146.593994 183.753128,146.468994 
	C183.860168,146.365250 183.989883,146.157745 184.070419,146.175339 
	C184.466766,146.261917 184.850067,146.408249 185.077225,146.688751 
z"/>
<path fill="#E4E9EC" opacity="1.000000" stroke="none" 
	d="
M215.998077,87.997444 
	C215.909653,88.034599 215.823181,88.074303 215.870895,88.058914 
	C216.005096,88.003822 216.000000,88.000000 215.998077,87.997444 
z"/>
<path fill="#CAD3D7" opacity="1.000000" stroke="none" 
	d="
M80.784416,97.198608 
	C80.573639,98.325974 80.094040,99.639946 79.287415,100.964066 
	C79.478783,99.777878 79.997185,98.581543 80.784416,97.198608 
z"/>
<path fill="#CAD3D7" opacity="1.000000" stroke="none" 
	d="
M80.242188,88.227356 
	C80.730156,88.507324 81.167488,89.086273 81.385094,89.812546 
	C80.840759,89.482018 80.516151,89.004181 80.242188,88.227356 
z"/>
</svg>