<?xml version="1.0" encoding="UTF-8" standalone="no"?>
<svg
   id="Ebene_1"
   data-name="Ebene 1"
   viewBox="0 0 141.73 141.73"
   version="1.1"
   sodipodi:docname="appicon.svg"
   inkscape:version="1.4.2 (f4327f4, 2025-05-13)"
   xmlns:inkscape="http://www.inkscape.org/namespaces/inkscape"
   xmlns:sodipodi="http://sodipodi.sourceforge.net/DTD/sodipodi-0.dtd"
   xmlns="http://www.w3.org/2000/svg"
   xmlns:svg="http://www.w3.org/2000/svg">
  <sodipodi:namedview
     id="namedview11"
     pagecolor="#ffffff"
     bordercolor="#000000"
     borderopacity="0.25"
     inkscape:showpageshadow="2"
     inkscape:pageopacity="0.0"
     inkscape:pagecheckerboard="0"
     inkscape:deskcolor="#d1d1d1"
     inkscape:zoom="4.2969027"
     inkscape:cx="70.748635"
     inkscape:cy="70.864998"
     inkscape:window-width="1536"
     inkscape:window-height="811"
     inkscape:window-x="-8"
     inkscape:window-y="-8"
     inkscape:window-maximized="1"
     inkscape:current-layer="Ebene_1" />
  <defs
     id="defs1">
    <style
       id="style1">
      .cls-1 {
        fill: #1f3243;
      }

      .cls-2 {
        fill: none;
        stroke: #9ac3e0;
        stroke-miterlimit: 10;
        stroke-width: .5px;
      }
    </style>
  </defs>
  <g
     id="g11">
    <path
       class="cls-1"
       d="M109.39,71.23c0,12.79-3.32,22.7-9.96,29.74-6.64,7.04-16.41,10.56-29.31,10.56h-25V30.71h25.14c12.8,0,22.53,3.56,29.17,10.67,6.64,7.12,9.96,17.07,9.96,29.85ZM62.14,99.57c3.28.21,6.05.12,8.12-.03,5.5-.39,7.89-1.33,8.9-1.77,1.32-.57,2.28-1.17,2.65-1.4,1.63-1.04,3.11-2.34,4.41-3.9,1.98-2.36,3.51-5.31,4.59-8.85,1.08-3.54,1.62-7.67,1.62-12.39s-.54-8.98-1.62-12.56c-1.08-3.58-2.61-6.54-4.59-8.9-1.98-2.36-4.33-4.13-7.06-5.31-2.13-.92-3.98-1.34-5.12-1.52-1.32-.21-2.31-.24-3.77-.25-2.06-.02-4.83-.02-8.18.07"
       id="path1" />
    <rect
       class="cls-1"
       x="45.12"
       y="26.58"
       width="18.64"
       height="5.62"
       id="rect1" />
    <rect
       class="cls-1"
       x="74.7"
       y="28.65"
       width="18.64"
       height="5.62"
       transform="translate(12.71 -22.98) rotate(16.83)"
       id="rect2" />
    <rect
       class="cls-1"
       x="95"
       y="43.34"
       width="18.64"
       height="5.62"
       transform="translate(92.12 -67.27) rotate(60)"
       id="rect3" />
    <rect
       class="cls-1"
       x="94.54"
       y="93.79"
       width="18.64"
       height="5.62"
       transform="translate(239.46 54.96) rotate(120)"
       id="rect4" />
    <rect
       class="cls-1"
       x="73.63"
       y="108.04"
       width="18.64"
       height="5.62"
       transform="translate(187.64 201.45) rotate(167.69)"
       id="rect5" />
    <rect
       class="cls-1"
       x="45.15"
       y="110.16"
       width="18.64"
       height="5.62"
       transform="translate(108.94 225.93) rotate(180)"
       id="rect6" />
    <rect
       class="cls-1"
       x="102.12"
       y="69.13"
       width="18.64"
       height="5.62"
       transform="translate(183.38 -39.5) rotate(90)"
       id="rect7" />
    <g
       id="g10">
      <rect
         class="cls-1"
         x="33.19"
         y="41.55"
         width="18.64"
         height="5.62"
         transform="translate(86.88 1.85) rotate(90)"
         id="rect8" />
      <rect
         class="cls-1"
         x="33.19"
         y="68.63"
         width="18.64"
         height="5.62"
         transform="translate(113.96 28.93) rotate(90)"
         id="rect9" />
      <rect
         class="cls-1"
         x="33.19"
         y="94.68"
         width="18.64"
         height="5.62"
         transform="translate(140 54.97) rotate(90)"
         id="rect10" />
    </g>
  </g>
  <rect
     class="cls-2"
     x="15.74"
     y="13.14"
     width="112.79"
     height="115.58"
     rx="16"
     ry="16"
     id="rect11"
     style="fill:#ffffff;fill-opacity:0" />
</svg>
