<svg version="1.1" id="Layer_1" xmlns="http://www.w3.org/2000/svg" xmlns:xlink="http://www.w3.org/1999/xlink" x="0px" y="0px"
	 width="100%" viewBox="0 0 255 255" enable-background="new 0 0 255 255" xml:space="preserve">
<path fill="#FDFEFE" opacity="1.000000" stroke="none" 
	d="
M149.000000,256.000000 
	C99.333336,256.000000 50.166672,256.000000 1.000007,256.000000 
	C1.000004,171.000015 1.000004,86.000015 1.000002,1.000018 
	C85.999985,1.000012 170.999969,1.000012 255.999969,1.000006 
	C255.999969,85.999977 255.999969,170.999954 255.999985,255.999969 
	C220.500000,256.000000 185.000000,256.000000 149.000000,256.000000 
M84.500046,12.828399 
	C72.404144,12.828399 60.308250,12.828399 48.214630,12.828399 
	C48.214630,91.025681 48.214630,168.541748 48.214630,246.076462 
	C58.702839,246.076462 68.776955,246.076462 79.449158,246.076462 
	C79.449158,213.173706 79.449158,180.621323 79.449158,147.651978 
	C82.027557,147.651978 84.003685,147.660721 85.979713,147.650665 
	C110.470963,147.526108 134.967438,147.660294 159.451416,147.170517 
	C173.323166,146.893036 186.390594,142.957870 197.461578,134.301620 
	C205.615402,127.926247 211.316940,119.444649 215.130936,109.804260 
	C223.853241,87.757515 224.244476,65.598114 212.993530,44.557480 
	C201.472092,23.011013 181.525894,13.904708 157.976486,13.144820 
	C133.839401,12.365967 109.660599,12.880137 84.500046,12.828399 
z"/>
<path fill="#0C2732" opacity="1.000000" stroke="none" 
	d="
M85.000046,12.828386 
	C109.660599,12.880137 133.839401,12.365967 157.976486,13.144820 
	C181.525894,13.904708 201.472092,23.011013 212.993530,44.557480 
	C224.244476,65.598114 223.853241,87.757515 215.130936,109.804260 
	C211.316940,119.444649 205.615402,127.926247 197.461578,134.301620 
	C186.390594,142.957870 173.323166,146.893036 159.451416,147.170517 
	C134.967438,147.660294 110.470963,147.526108 85.979713,147.650665 
	C84.003685,147.660721 82.027557,147.651978 79.449158,147.651978 
	C79.449158,180.621323 79.449158,213.173706 79.449158,246.076462 
	C68.776955,246.076462 58.702839,246.076462 48.214630,246.076462 
	C48.214630,168.541748 48.214630,91.025681 48.214630,12.828399 
	C60.308250,12.828399 72.404144,12.828399 85.000046,12.828386 
M79.522583,40.146320 
	C79.457100,40.432945 79.391617,40.719566 79.063446,41.882545 
	C79.096207,44.936131 79.128967,47.989716 78.625290,51.556541 
	C76.238663,52.620304 73.852043,53.684067 70.857605,54.918407 
	C69.573952,56.283638 68.290298,57.648865 66.440033,59.261772 
	C66.060989,60.188557 65.681938,61.115337 64.856247,62.743488 
	C64.728020,65.809921 64.599792,68.876350 64.342796,72.575104 
	C64.839928,73.497627 65.337059,74.420158 65.846909,75.733414 
	C65.846909,75.733414 66.153030,75.976555 66.164566,76.603279 
	C66.722504,77.183464 67.280449,77.763657 68.079895,78.961433 
	C71.496819,81.093529 74.913734,83.225624 79.026604,85.791969 
	C79.026604,95.102478 79.099037,105.339172 78.981468,115.573677 
	C78.947212,118.557060 79.471115,120.514877 83.625572,120.260925 
	C84.772583,120.303848 85.919601,120.346771 87.945816,120.699577 
	C93.277893,120.631500 98.609962,120.563416 104.614006,120.704735 
	C105.732201,120.438072 106.850395,120.171410 108.783585,120.004593 
	C111.166512,119.462234 113.549438,118.919876 116.464600,118.596809 
	C116.968483,118.370636 117.472359,118.144463 118.727531,117.947044 
	C123.684250,116.046005 128.796448,114.469597 133.568848,112.183762 
	C148.576996,104.995361 162.891266,106.692276 176.830566,114.961906 
	C179.503891,116.547890 182.091934,118.277611 185.082108,120.170700 
	C185.805405,118.514877 186.480072,117.233391 186.938995,115.878822 
	C191.215912,103.254860 191.729980,90.418587 188.295013,77.586617 
	C185.013229,65.326851 177.738434,55.938519 166.233948,49.178043 
	C165.478729,48.853432 164.723526,48.528820 163.721741,47.877602 
	C163.721741,47.877602 163.313568,47.848324 162.917084,47.254593 
	C159.253784,46.058575 155.590500,44.862553 151.351089,43.259804 
	C150.887634,43.222843 150.424164,43.185886 149.554184,42.752640 
	C149.012451,42.714188 148.470718,42.675735 147.252365,42.273842 
	C146.492096,42.216606 145.731812,42.159370 144.484787,41.669891 
	C143.635788,41.618771 142.786774,41.567650 141.241562,41.200279 
	C140.484421,41.170761 139.727295,41.141247 138.315170,40.735588 
	C136.524536,40.641258 134.733887,40.546928 132.041138,40.213520 
	C114.697769,40.233288 97.354393,40.253056 79.522583,40.146320 
z"/>
<path fill="#FDFDFD" opacity="1.000000" stroke="none" 
	d="
M166.546844,49.731239 
	C177.738434,55.938519 185.013229,65.326851 188.295013,77.586617 
	C191.729980,90.418587 191.215912,103.254860 186.938995,115.878822 
	C186.480072,117.233391 185.805405,118.514877 185.082108,120.170700 
	C182.091934,118.277611 179.503891,116.547890 176.830566,114.961906 
	C162.891266,106.692276 148.576996,104.995361 133.568848,112.183762 
	C128.796448,114.469597 123.684250,116.046005 118.224625,117.716530 
	C117.125267,117.783180 116.528816,118.080345 115.932365,118.377518 
	C113.549438,118.919876 111.166512,119.462234 108.174652,119.707565 
	C106.357819,119.772133 105.149933,120.133736 103.942039,120.495338 
	C98.609962,120.563416 93.277893,120.631500 87.398415,120.254761 
	C85.577103,119.838196 84.303200,119.866440 83.029289,119.894691 
	C79.471115,120.514877 78.947212,118.557060 78.981468,115.573677 
	C79.099037,105.339172 79.026604,95.102478 79.026604,85.791969 
	C74.913734,83.225624 71.496819,81.093529 67.994637,78.313065 
	C67.323929,77.101974 66.738480,76.539261 66.153030,75.976555 
	C66.153030,75.976555 65.846909,75.733414 65.906723,75.191170 
	C65.468216,73.746880 64.969887,72.844826 64.471558,71.942780 
	C64.599792,68.876350 64.728020,65.809921 65.401878,62.327400 
	C66.300552,60.945576 66.653603,59.979836 67.006653,59.014091 
	C68.290298,57.648865 69.573952,56.283638 71.561340,54.895065 
	C74.563965,53.595577 76.862846,52.319439 79.161728,51.043301 
	C79.128967,47.989716 79.096207,44.936131 79.369095,41.389496 
	C79.892715,40.745674 80.004814,40.537800 80.011024,40.272823 
	C97.354393,40.253056 114.697769,40.233288 132.601624,40.660675 
	C135.098129,41.109135 137.034149,41.110432 138.970154,41.111729 
	C139.727295,41.141247 140.484421,41.170761 141.663864,41.641685 
	C143.047958,42.089443 144.009750,42.095791 144.971542,42.102135 
	C145.731812,42.159370 146.492096,42.216606 147.648911,42.698608 
	C148.683868,43.131889 149.322296,43.140408 149.960709,43.148926 
	C150.424164,43.185886 150.887634,43.222843 151.766785,43.765091 
	C155.892838,45.463028 159.603210,46.655674 163.313568,47.848320 
	C163.313568,47.848324 163.721741,47.877602 163.918793,48.386082 
	C164.926178,49.173454 165.736511,49.452347 166.546844,49.731239 
M72.037094,66.807938 
	C72.118378,67.954620 72.004196,69.157555 72.315193,70.238121 
	C73.579269,74.630196 77.722336,77.012436 81.932419,75.895348 
	C85.979576,74.821487 88.575417,70.874176 87.899513,66.821594 
	C87.196114,62.604134 83.191750,59.662819 78.803444,60.246315 
	C77.673523,60.396557 76.588203,60.882210 74.823730,61.287991 
	C74.602570,61.646229 74.381401,62.004471 74.063568,62.754589 
	C73.919052,63.007114 73.702782,63.153957 72.715935,63.137371 
	C72.480492,64.092499 72.245049,65.047630 72.037094,66.807938 
z"/>
<path fill="#DFE4E7" opacity="1.000000" stroke="none" 
	d="
M163.115326,47.551456 
	C159.603210,46.655674 155.892838,45.463028 152.054840,43.968460 
	C155.590500,44.862553 159.253784,46.058575 163.115326,47.551456 
z"/>
<path fill="#DFE4E7" opacity="1.000000" stroke="none" 
	d="
M78.893509,51.299919 
	C76.862846,52.319439 74.563965,53.595577 71.865250,54.809776 
	C73.852043,53.684067 76.238663,52.620304 78.893509,51.299919 
z"/>
<path fill="#DFE4E7" opacity="1.000000" stroke="none" 
	d="
M138.642670,40.923660 
	C137.034149,41.110432 135.098129,41.109135 133.052689,40.780216 
	C134.733887,40.546928 136.524536,40.641258 138.642670,40.923660 
z"/>
<path fill="#DFE4E7" opacity="1.000000" stroke="none" 
	d="
M83.327431,120.077805 
	C84.303200,119.866440 85.577103,119.838196 86.958817,120.099815 
	C85.919601,120.346771 84.772583,120.303848 83.327431,120.077805 
z"/>
<path fill="#DFE4E7" opacity="1.000000" stroke="none" 
	d="
M104.278023,120.600037 
	C105.149933,120.133736 106.357819,119.772133 107.767151,119.657639 
	C106.850395,120.171410 105.732201,120.438072 104.278023,120.600037 
z"/>
<path fill="#DFE4E7" opacity="1.000000" stroke="none" 
	d="
M144.728165,41.886017 
	C144.009750,42.095791 143.047958,42.089443 142.011963,41.799812 
	C142.786774,41.567650 143.635788,41.618771 144.728165,41.886017 
z"/>
<path fill="#DFE4E7" opacity="1.000000" stroke="none" 
	d="
M66.723343,59.137932 
	C66.653603,59.979836 66.300552,60.945576 65.625198,61.976719 
	C65.681938,61.115337 66.060989,60.188557 66.723343,59.137932 
z"/>
<path fill="#DFE4E7" opacity="1.000000" stroke="none" 
	d="
M64.407181,72.258942 
	C64.969887,72.844826 65.468216,73.746880 65.900360,74.995804 
	C65.337059,74.420158 64.839928,73.497627 64.407181,72.258942 
z"/>
<path fill="#DFE4E7" opacity="1.000000" stroke="none" 
	d="
M149.757446,42.950783 
	C149.322296,43.140408 148.683868,43.131889 147.987213,42.880329 
	C148.470718,42.675735 149.012451,42.714188 149.757446,42.950783 
z"/>
<path fill="#DFE4E7" opacity="1.000000" stroke="none" 
	d="
M166.390396,49.454643 
	C165.736511,49.452347 164.926178,49.173454 164.042084,48.549385 
	C164.723526,48.528820 165.478729,48.853432 166.390396,49.454643 
z"/>
<path fill="#DFE4E7" opacity="1.000000" stroke="none" 
	d="
M66.158798,76.289917 
	C66.738480,76.539261 67.323929,77.101974 67.873886,78.004265 
	C67.280449,77.763657 66.722504,77.183464 66.158798,76.289917 
z"/>
<path fill="#DFE4E7" opacity="1.000000" stroke="none" 
	d="
M116.198486,118.487160 
	C116.528816,118.080345 117.125267,117.783180 117.848976,117.702156 
	C117.472359,118.144463 116.968483,118.370636 116.198486,118.487160 
z"/>
<path fill="#DFE4E7" opacity="1.000000" stroke="none" 
	d="
M79.766800,40.209572 
	C80.004814,40.537800 79.892715,40.745674 79.500435,40.951317 
	C79.391617,40.719566 79.457100,40.432945 79.766800,40.209572 
z"/>
<path fill="#192F39" opacity="1.000000" stroke="none" 
	d="
M75.482391,61.213776 
	C76.588203,60.882210 77.673523,60.396557 78.803444,60.246315 
	C83.191750,59.662819 87.196114,62.604134 87.899513,66.821594 
	C88.575417,70.874176 85.979576,74.821487 81.932419,75.895348 
	C77.722336,77.012436 73.579269,74.630196 72.315193,70.238121 
	C72.004196,69.157555 72.118378,67.954620 72.265381,66.194443 
	C72.800697,64.785667 73.107727,63.990395 73.414749,63.195118 
	C73.702782,63.153957 73.919052,63.007114 74.408234,62.468208 
	C74.996056,61.859142 75.239227,61.536461 75.482391,61.213776 
z"/>
<path fill="#DFE4E7" opacity="1.000000" stroke="none" 
	d="
M73.065338,63.166245 
	C73.107727,63.990395 72.800697,64.785667 72.251633,65.791855 
	C72.245049,65.047630 72.480492,64.092499 73.065338,63.166245 
z"/>
<path fill="#DFE4E7" opacity="1.000000" stroke="none" 
	d="
M75.153061,61.250885 
	C75.239227,61.536461 74.996056,61.859142 74.456566,62.272266 
	C74.381401,62.004471 74.602570,61.646229 75.153061,61.250885 
z"/>
</svg>